Coordinates
version=1
nRows=19
nColumns=30
inDegrees=yes

Units are S.I. units (second, meters, Newtons, ...)
Angles are in degrees.

endheader
time	floatyaw	floatroll	floatpitch	floatx	floaty	floatz	pro_sup_l	deviation_l	flexion_l	cmc_flexion_l	cmc_abduction_l	mp_flexion_l	ip_flexion_l	2mcp_flexion_l	2mcp_abduction_l	2pm_flexion_l	2md_flexion_l	3mcp_flexion_l	3mcp_abduction_l	3pm_flexion_l	3md_flexion_l	4mcp_flexion_l	4mcp_abduction_l	4pm_flexion_l	4md_flexion_l	5mcp_flexion_l	5mcp_abduction_l	5pm_flexion_l	5md_flexion_l
-0.995000	-160.147433	-5.066637	-73.570646	0.067431	-0.172935	-0.027626	102.761115	7.320178	-0.737484	15.260810	9.577159	-25.215307	-41.631703	30.248269	6.543998	42.669685	30.501168	25.288175	3.964977	44.812836	30.081944	15.477074	-4.240405	52.183467	36.913936	3.115905	-7.610932	62.981767	42.981767
-0.985000	-160.147433	-5.066637	-73.570646	0.066441	-0.172406	-0.028415	102.855137	7.501795	-0.705560	15.292407	9.710207	-25.146899	-41.548292	30.192079	6.544632	42.659541	30.498366	25.288406	3.949791	44.843419	30.109580	15.592087	-4.247747	52.110986	36.912589	3.220192	-7.610334	62.938279	42.978769
-0.975000	-160.147433	-5.066637	-73.570646	0.065396	-0.171877	-0.029233	102.986461	7.682706	-0.658735	15.321397	9.777629	-25.124880	-41.520556	30.144444	6.553100	42.656306	30.507470	25.296411	3.934048	44.895075	30.156734	15.718982	-4.256253	52.043899	36.926600	3.342320	-7.606242	62.888744	42.979019
-0.965000	-160.147433	-5.066637	-73.570646	0.064297	-0.171354	-0.030072	103.142951	7.868819	-0.620244	15.343823	9.748808	-25.162704	-41.570361	30.109768	6.572985	42.670746	30.541392	25.314843	3.923087	44.976323	30.228507	15.849972	-4.264165	52.008284	36.972457	3.482280	-7.608402	62.858862	42.997251
-0.955000	-160.147433	-5.066637	-73.570646	0.063144	-0.170838	-0.030926	103.311424	8.066730	-0.614464	15.357619	9.623397	-25.248611	-41.686675	30.087750	6.606770	42.712716	30.607971	25.344713	3.920865	45.093395	30.323859	15.976500	-4.270591	52.030123	37.059566	3.639108	-7.624354	62.873994	43.043970
-0.945000	-160.147433	-5.066637	-73.570646	0.061933	-0.170322	-0.031797	103.480908	8.279381	-0.658522	15.362399	9.438834	-25.347954	-41.826914	30.073858	6.655466	42.786914	30.704724	25.383927	3.928931	45.246192	30.435256	16.090492	-4.276057	52.123765	37.186979	3.808975	-7.657631	62.943417	43.120256
-0.935000	-160.147433	-5.066637	-73.570646	0.060665	-0.169798	-0.032691	103.643669	8.502993	-0.757130	15.360570	9.257472	-25.417847	-41.935542	30.060857	6.717602	42.890923	30.818279	25.425618	3.946593	45.426076	30.552168	16.183940	-4.281977	52.283637	37.344791	3.983161	-7.708569	63.051392	43.217949
-0.925000	-160.147433	-5.066637	-73.570646	0.059340	-0.169259	-0.033620	103.795216	8.727705	-0.901902	15.358375	9.138783	-25.427557	-41.970812	30.040892	6.788421	43.016405	30.929896	25.458098	3.972079	45.617797	30.667284	16.249475	-4.289533	52.484340	37.519872	4.148873	-7.776793	63.162747	43.326381
-0.915000	-160.147433	-5.066637	-73.570646	0.057966	-0.168698	-0.034590	103.934518	8.941920	-1.074214	15.364540	9.112585	-25.373090	-41.923907	30.008080	6.860802	43.153076	31.025253	25.468909	4.003909	45.805767	30.782017	16.284843	-4.298979	52.690856	37.703109	4.295372	-7.863249	63.242260	43.442068
-0.905000	-160.147433	-5.066637	-73.570646	0.056551	-0.168113	-0.035598	104.064228	9.137754	-1.250282	15.385896	9.168778	-25.276566	-41.818184	29.961593	6.928206	43.293977	31.103615	25.452812	4.041555	45.981985	30.907431	16.300310	-4.309947	52.875067	37.893817	4.423630	-7.969851	63.277481	43.574411
-0.895000	-160.147433	-5.066637	-73.570646	0.055110	-0.167503	-0.036629	104.190246	9.314234	-1.407544	15.422543	9.267986	-25.171010	-41.689559	29.907887	6.987614	43.439374	31.180600	25.418912	4.084915	46.150575	31.058807	16.322947	-4.322266	53.029610	38.097859	4.552884	-8.096544	63.290580	43.741940
-0.885000	-160.147433	-5.066637	-73.570646	0.053653	-0.166879	-0.037661	104.320758	9.476545	-1.530880	15.466413	9.364696	-25.082025	-41.563344	29.859553	7.039871	43.596339	31.281591	25.390386	4.133000	46.324885	31.245916	16.391234	-4.336267	53.170051	38.320074	4.717240	-8.237892	63.330188	43.959889
-0.875000	-160.147433	-5.066637	-73.570646	0.052189	-0.166259	-0.038672	104.465327	9.632153	-1.616329	15.504777	9.429129	-25.019496	-41.445392	29.829895	7.087118	43.773652	31.428831	25.395090	4.182888	46.518425	31.464825	16.540244	-4.352234	53.323488	38.556416	4.952224	-8.382160	63.446502	44.226825
-0.865000	-160.147433	-5.066637	-73.570646	0.050727	-0.165668	-0.039651	104.634173	9.786462	-1.670595	15.526225	9.457584	-24.982866	-41.332582	29.826061	7.129955	43.976114	31.630265	25.452758	4.229935	46.736561	31.697414	16.786233	-4.369728	53.511502	38.792447	5.279166	-8.514259	63.664225	44.519944
-0.855000	-160.147433	-5.066637	-73.570646	0.049276	-0.165137	-0.040593	104.837525	9.940490	-1.707063	15.525190	9.468630	-24.971954	-41.230594	29.845224	7.167396	44.203581	31.877621	25.567253	4.269354	46.975862	31.920417	17.121037	-4.387712	53.739438	39.010350	5.696808	-8.621294	63.970309	44.803590
-0.845000	-160.147433	-5.066637	-73.570646	0.047850	-0.164690	-0.041504	105.085461	10.091417	-1.740757	15.503067	9.489213	-24.992524	-41.161778	29.876059	7.199865	44.455417	32.154459	25.728170	4.298299	47.231666	32.119035	17.519067	-4.405348	53.998666	39.199936	6.183624	-8.697934	64.324214	45.046819
-0.835000	-160.147433	-5.066637	-73.570646	0.046465	-0.164342	-0.042388	105.388530	10.234852	-1.784296	15.466629	9.538638	-25.052795	-41.156318	29.904630	7.232282	44.735096	32.447327	25.919636	4.317192	47.507263	32.296310	17.950303	-4.422571	54.278568	39.366278	6.707538	-8.748868	64.683027	45.239441
-0.825000	-160.147433	-5.066637	-73.570646	0.045138	-0.164093	-0.043247	105.758219	10.366891	-1.845548	15.425431	9.618420	-25.155389	-41.234584	29.922028	7.273863	45.049100	32.751416	26.130274	4.329448	47.816691	32.471849	18.389609	-4.439812	54.578575	39.529547	7.237038	-8.786904	65.023822	45.396795
-0.815000	-160.147433	-5.066637	-73.570646	0.043887	-0.163934	-0.044075	106.205234	10.484764	-1.926852	15.389431	9.711913	-25.291797	-41.394208	29.930412	7.334073	45.399849	33.067593	26.358089	4.339858	48.178306	32.670935	18.817256	-4.457200	54.911461	39.718071	7.748760	-8.827546	65.349103	45.551356
